<?xml version="1.0" encoding="UTF-8"?>
<svg version="1.1" xmlns="http://www.w3.org/2000/svg" width="43" height="49">
<path d="M0 0 C2.07421875 1.4921875 2.07421875 1.4921875 3.07421875 4.4921875 C0.10421875 6.1421875 -2.86578125 7.7921875 -5.92578125 9.4921875 C-6.53882335 13.32029485 -6.81114636 16.69553357 -5.92578125 20.4921875 C-2.93223863 23.27040513 0.33091629 24.90796842 4.07421875 26.4921875 C4.52152344 26.03457031 4.96882813 25.57695313 5.4296875 25.10546875 C7.55070493 23.02475569 9.34298981 21.69900959 12.07421875 20.4921875 C16.74500702 21.38659376 20.31596692 23.62875754 24.07421875 26.4921875 C24.07421875 27.1521875 24.07421875 27.8121875 24.07421875 28.4921875 C17.55246143 32.38015821 17.55246143 32.38015821 15.08984375 32.95703125 C11.97926133 33.78290294 9.67746529 35.69067335 7.07421875 37.53125 C5.07421875 38.4921875 5.07421875 38.4921875 3.19140625 38.31640625 C0.44369784 37.24672641 -2.16570256 36.00393188 -4.80078125 34.6796875 C-5.80882812 34.17824219 -6.816875 33.67679688 -7.85546875 33.16015625 C-8.86867188 32.60972656 -9.881875 32.05929688 -10.92578125 31.4921875 C-12.03050781 31.02554688 -13.13523437 30.55890625 -14.2734375 30.078125 C-17.44410707 26.98683891 -17.38203851 26.03542869 -17.6171875 21.73828125 C-17.60523363 19.46837475 -17.56105556 17.1984586 -17.48828125 14.9296875 C-17.48634766 13.78048828 -17.48441406 12.63128906 -17.48242188 11.44726562 C-17.34920853 3.02522191 -17.34920853 3.02522191 -15.55444336 0.76586914 C-9.35594101 -4.081618 -6.73773327 -3.56525797 0 0 Z M8.07421875 28.4921875 C8.07421875 29.1521875 8.07421875 29.8121875 8.07421875 30.4921875 C9.39421875 30.8221875 10.71421875 31.1521875 12.07421875 31.4921875 C12.07421875 30.8321875 12.07421875 30.1721875 12.07421875 29.4921875 C10.75421875 29.1621875 9.43421875 28.8321875 8.07421875 28.4921875 Z " fill="#5925D4" transform="translate(16.92578125,9.5078125)"/>
<path d="M0 0 C3.38671875 1.7421875 3.38671875 1.7421875 6.6875 3.875 C7.78449219 4.57367188 8.88148437 5.27234375 10.01171875 5.9921875 C11.49091797 6.98605469 11.49091797 6.98605469 13 8 C13.78503906 8.46277344 14.57007812 8.92554688 15.37890625 9.40234375 C17 11 17 11 17.390625 13.69921875 C17.32101563 15.17841797 17.32101563 15.17841797 17.25 16.6875 C17.21390625 17.68136719 17.1778125 18.67523437 17.140625 19.69921875 C17.07101563 20.83810547 17.07101563 20.83810547 17 22 C11.29249156 20.42487592 6.55578161 17.61286472 1.5 14.625 C0.67113281 14.14289062 -0.15773438 13.66078125 -1.01171875 13.1640625 C-10.28056638 7.74127088 -10.28056638 7.74127088 -14 5 C-14 4.34 -14 3.68 -14 3 C-8.72160664 -0.55483634 -6.46431948 -1.51980277 0 0 Z " fill="#5011D5" transform="translate(25,1)"/>
<path d="M0 0 C3.18875955 1.62830275 6.08748744 3.32856186 8.9375 5.5 C8.9375 6.16 8.9375 6.82 8.9375 7.5 C2.41574268 11.38797071 2.41574268 11.38797071 -0.046875 11.96484375 C-3.15745742 12.79071544 -5.45925346 14.69848585 -8.0625 16.5390625 C-10.0625 17.5 -10.0625 17.5 -12.109375 17.24609375 C-14.86521341 16.19336348 -17.45020429 14.86551821 -20.0625 13.5 C-20.0625 12.51 -20.0625 11.52 -20.0625 10.5 C-21.3825 9.84 -22.7025 9.18 -24.0625 8.5 C-24.0625 7.84 -24.0625 7.18 -24.0625 6.5 C-19.20657429 5.11259265 -14.97608857 5.60662026 -10.0625 6.5 C-10.0625 5.51 -10.0625 4.52 -10.0625 3.5 C-3.96375847 -0.64714424 -3.96375847 -0.64714424 0 0 Z M-7.0625 7.5 C-7.0625 8.16 -7.0625 8.82 -7.0625 9.5 C-5.7425 9.83 -4.4225 10.16 -3.0625 10.5 C-3.0625 9.84 -3.0625 9.18 -3.0625 8.5 C-4.3825 8.17 -5.7025 7.84 -7.0625 7.5 Z " fill="#4A0BD0" transform="translate(32.0625,30.5)"/>
<path d="M0 0 C3.18875955 1.62830275 6.08748744 3.32856186 8.9375 5.5 C8.9375 6.16 8.9375 6.82 8.9375 7.5 C1.65178571 11.92857143 1.65178571 11.92857143 -3.0625 12.5 C-3.3925 11.84 -3.7225 11.18 -4.0625 10.5 C-3.7325 9.84 -3.4025 9.18 -3.0625 8.5 C-3.825625 8.726875 -4.58875 8.95375 -5.375 9.1875 C-6.261875 9.290625 -7.14875 9.39375 -8.0625 9.5 C-9.875 8.0625 -9.875 8.0625 -11.0625 6.5 C-9.85793917 2.88631752 -8.26294005 1.92679052 -4.9609375 0.16796875 C-3.0625 -0.5 -3.0625 -0.5 0 0 Z " fill="#7358DC" transform="translate(32.0625,30.5)"/>
<path d="M0 0 C3.55841974 1.69284046 6.77724174 3.73935955 10 6 C8.1875 7.0625 8.1875 7.0625 6 8 C5.01 7.67 4.02 7.34 3 7 C2.01 7.495 2.01 7.495 1 8 C1 7.34 1 6.68 1 6 C-0.32 6.33 -1.64 6.66 -3 7 C-2.34 7.61875 -1.68 8.2375 -1 8.875 C1 11 1 11 1 13 C-3.60297162 11.68486525 -7.34120984 10.13610585 -11 7 C-11.375 3.75 -11.375 3.75 -11 1 C-7.44909167 -0.77545416 -3.86774009 -0.64559271 0 0 Z " fill="#723FD5" transform="translate(11,30)"/>
<path d="M0 0 C3.77948596 1.48088888 7.3850182 3.15047443 11 5 C11 8.63 11 12.26 11 16 C8.98202112 15.38991336 6.98451771 14.71143088 5 14 C4.05125 13.690625 3.1025 13.38125 2.125 13.0625 C0 11 0 11 -0.30859375 8.359375 C-0.31218818 5.55572157 -0.21353654 2.79495599 0 0 Z " fill="#7C45DA" transform="translate(31,19)"/>
<path d="M0 0 C0.66 0 1.32 0 2 0 C2 3.3 2 6.6 2 10 C-6.75 12 -6.75 12 -9 12 C-9 10.02 -9 8.04 -9 6 C-8.34 6 -7.68 6 -7 6 C-7 5.34 -7 4.68 -7 4 C-5.68 4 -4.36 4 -3 4 C-2.67 3.34 -2.34 2.68 -2 2 C-1.34 2.33 -0.68 2.66 0 3 C0 2.01 0 1.02 0 0 Z " fill="#8353D4" transform="translate(9,19)"/>
<path d="M0 0 C6.93359375 2.1484375 6.93359375 2.1484375 9 3 C9.33 3.66 9.66 4.32 10 5 C9.67 5.99 9.34 6.98 9 8 C6.05480723 9.04111729 3.08376572 9.43536684 0 10 C0 6.7 0 3.4 0 0 Z " fill="#5F19D1" transform="translate(0,14)"/>
<path d="M0 0 C2.97 0.495 2.97 0.495 6 1 C6 4.63 6 8.26 6 12 C3.0625 11.25 3.0625 11.25 0 10 C-0.875 7.875 -0.875 7.875 -1 6 C0.32 5.67 1.64 5.34 3 5 C3 4.34 3 3.68 3 3 C2.34 3 1.68 3 1 3 C0.67 2.01 0.34 1.02 0 0 Z " fill="#4C10C2" transform="translate(36,23)"/>
<path d="M0 0 C1.6975594 0.58353604 3.35544725 1.28050817 5 2 C6.04607422 2.42539063 6.04607422 2.42539063 7.11328125 2.859375 C9.52808102 4.04318448 11.1882387 4.99868703 13 7 C13.69245055 10.75297624 13.475631 14.22798193 13 18 C11.02 17.34 9.04 16.68 7 16 C7 15.34 7 14.68 7 14 C8.32 14 9.64 14 11 14 C11 11.69 11 9.38 11 7 C7.37802806 5.50859979 3.72433382 4.2125738 0 3 C0 2.01 0 1.02 0 0 Z " fill="#4825C2" transform="translate(29,5)"/>
<path d="M0 0 C-1.32 0.33 -2.64 0.66 -4 1 C-3.67 3.64 -3.34 6.28 -3 9 C-7.26649636 9 -8.63316085 8.43160605 -12 6 C-12 5.34 -12 4.68 -12 4 C-4.71428571 -0.57142857 -4.71428571 -0.57142857 0 0 Z " fill="#5D22D3" transform="translate(23,0)"/>
<path d="M0 0 C0 0.99 0 1.98 0 3 C0.66 3.33 1.32 3.66 2 4 C0.02 4.99 0.02 4.99 -2 6 C-1.34 7.32 -0.68 8.64 0 10 C-2.475 9.01 -2.475 9.01 -5 8 C-5 7.01 -5 6.02 -5 5 C-6.32 4.34 -7.64 3.68 -9 3 C-9 2.34 -9 1.68 -9 1 C-6.06474376 -0.46762812 -3.22390037 0 0 0 Z " fill="#5321D1" transform="translate(17,36)"/>
<path d="M0 0 C1.32 0.66 2.64 1.32 4 2 C3.67 2.66 3.34 3.32 3 4 C3.825 4.78375 4.65 5.5675 5.5 6.375 C8 9 8 9 8 11 C3.02790438 9.23570801 -1.43438061 6.6060834 -6 4 C-3.92446352 3.4465236 -2.15634036 3 0 3 C0 2.01 0 1.02 0 0 Z " fill="#7E48D5" transform="translate(25,7)"/>
<path d="M0 0 C0.33 1.65 0.66 3.3 1 5 C-0.65 5.66 -2.3 6.32 -4 7 C-4 6.34 -4 5.68 -4 5 C-5.65 5 -7.3 5 -9 5 C-9 3.68 -9 2.36 -9 1 C-6.04335481 -0.4783226 -3.25770263 -0.06032783 0 0 Z " fill="#5309D7" transform="translate(9,30)"/>
<path d="M0 0 C-1 3 -1 3 -3.8125 4.75 C-6.96403086 5.98589446 -7.96929372 6.28222189 -11 5 C-10.34 4.67 -9.68 4.34 -9 4 C-8.71125 3.175 -8.4225 2.35 -8.125 1.5 C-7 -1 -7 -1 -5.0625 -1.9375 C-3 -2 -3 -2 0 0 Z " fill="#552ECF" transform="translate(29,42)"/>
<path d="M0 0 C1.5843317 0.08768248 3.16753567 0.19587329 4.75 0.3125 C6.07257812 0.39951172 6.07257812 0.39951172 7.421875 0.48828125 C10.32303774 1.0641181 11.79225607 2.07596148 14 4 C13.67 4.66 13.34 5.32 13 6 C12.42636719 5.85304688 11.85273438 5.70609375 11.26171875 5.5546875 C9.81241735 5.19924571 8.35664496 4.86870305 6.89453125 4.5703125 C4.90613251 4.14502646 2.95023616 3.57547952 1 3 C0.67 2.01 0.34 1.02 0 0 Z " fill="#9569DF" transform="translate(0,12)"/>
<path d="M0 0 C1.66611905 -0.042721 3.33382885 -0.04063832 5 0 C6 1 6 1 6.0625 3.5625 C6.041875 4.366875 6.02125 5.17125 6 6 C3 6 3 6 0 4 C0 2.68 0 1.36 0 0 Z " fill="#601DD2" transform="translate(10,10)"/>
<path d="M0 0 C0.33 0.66 0.66 1.32 1 2 C1.66 2.33 2.32 2.66 3 3 C4.00016187 5.00032373 4.49396008 6.83125748 5 9 C3.35 9.33 1.7 9.66 0 10 C0 6.7 0 3.4 0 0 Z " fill="#4E17BA" transform="translate(31,19)"/>
<path d="M0 0 C0.33 1.65 0.66 3.3 1 5 C-1.375 5.625 -1.375 5.625 -4 6 C-4.66 5.34 -5.32 4.68 -6 4 C-5.67 3.01 -5.34 2.02 -5 1 C-2 0 -2 0 0 0 Z " fill="#532AD1" transform="translate(36,35)"/>
<path d="M0 0 C1.32 0.33 2.64 0.66 4 1 C4 4.63 4 8.26 4 12 C1.97954558 11.39816251 -0.02111039 10.72693904 -2 10 C-2.33 9.34 -2.66 8.68 -3 8 C-1.35 8 0.3 8 2 8 C2.33 6.02 2.66 4.04 3 2 C2.01 1.67 1.02 1.34 0 1 C0 0.67 0 0.34 0 0 Z " fill="#A386E9" transform="translate(38,23)"/>
<path d="M0 0 C1.32 0.66 2.64 1.32 4 2 C3.01 3.32 2.02 4.64 1 6 C-1.9375 5.625 -1.9375 5.625 -5 5 C-5.33 4.34 -5.66 3.68 -6 3 C-4.02 3 -2.04 3 0 3 C0 2.01 0 1.02 0 0 Z " fill="#7636D8" transform="translate(25,7)"/>
<path d="M0 0 C2.02045442 0.60183749 4.02111039 1.27306096 6 2 C6.33 2.66 6.66 3.32 7 4 C4.23735711 4.59732819 1.83967231 5 -1 5 C-0.67 3.35 -0.34 1.7 0 0 Z " fill="#7E4DDB" transform="translate(29,30)"/>
<path d="M0 0 C0.66 0 1.32 0 2 0 C2.33 0.66 2.66 1.32 3 2 C4.97888961 2.72693904 6.97954558 3.39816251 9 4 C9 4.33 9 4.66 9 5 C4.545 5.495 4.545 5.495 0 6 C0 4.02 0 2.04 0 0 Z " fill="#6F37CE" transform="translate(0,25)"/>
<path d="M0 0 C1.98 0 3.96 0 6 0 C5.67 1.32 5.34 2.64 5 4 C3.0625 3.6875 3.0625 3.6875 1 3 C0.67 2.01 0.34 1.02 0 0 Z M0 3 C0.33 3.99 0.66 4.98 1 6 C0.01 6 -0.98 6 -2 6 C-2 5.34 -2 4.68 -2 4 C-1.34 3.67 -0.68 3.34 0 3 Z " fill="#4E0DDC" transform="translate(24,4)"/>
<path d="M0 0 C0 0.66 0 1.32 0 2 C-3.22791555 4.1519437 -4.28400809 4.20086443 -8 4 C-8.33 3.01 -8.66 2.02 -9 1 C-6.06474376 -0.46762812 -3.22390037 0 0 0 Z " fill="#5608DC" transform="translate(17,36)"/>
<path d="M0 0 C0.99 0 1.98 0 3 0 C3 1.65 3 3.3 3 5 C-0.75 6.125 -0.75 6.125 -3 5 C-3 4.34 -3 3.68 -3 3 C-2.34 3 -1.68 3 -1 3 C-0.67 2.01 -0.34 1.02 0 0 Z " fill="#5F21D4" transform="translate(36,14)"/>
<path d="M0 0 C3 0 3 0 6 1 C5.67 2.32 5.34 3.64 5 5 C3.68 5.33 2.36 5.66 1 6 C0 3 0 3 0 0 Z " fill="#6826DA" transform="translate(4,17)"/>
<path d="M0 0 C-2.93720508 1.52299523 -5.9168649 2.80100302 -9 4 C-9 4.99 -9 5.98 -9 7 C-9.99 6.67 -10.98 6.34 -12 6 C-12 5.34 -12 4.68 -12 4 C-4.71428571 -0.57142857 -4.71428571 -0.57142857 0 0 Z " fill="#746CDE" transform="translate(23,0)"/>
<path d="M0 0 C2.9719385 1.12451727 5.33440687 2.22293791 8 4 C8 4.66 8 5.32 8 6 C6.68 6.33 5.36 6.66 4 7 C3.896875 6.401875 3.79375 5.80375 3.6875 5.1875 C2.91123545 2.71756736 1.92911079 1.67748765 0 0 Z " fill="#9D7AE0" transform="translate(12,8)"/>
<path d="M0 0 C0.33 0 0.66 0 1 0 C1 3.63 1 7.26 1 11 C-0.98 10.34 -2.96 9.68 -5 9 C-5 8.67 -5 8.34 -5 8 C-3.35 8 -1.7 8 0 8 C0 5.36 0 2.72 0 0 Z " fill="#947CE3" transform="translate(41,12)"/>
<path d="M0 0 C2.475 0.99 2.475 0.99 5 2 C5 2.66 5 3.32 5 4 C3.68 4.33 2.36 4.66 1 5 C0.67 3.35 0.34 1.7 0 0 Z " fill="#8677D6" transform="translate(36,34)"/>
</svg>
